<svg width="27" height="27" viewBox="0 0 27 27" fill="none" xmlns="http://www.w3.org/2000/svg">
<path d="M19.2246 2.29291H8.39128C5.39973 2.29291 2.97461 4.71803 2.97461 7.70957V18.5429C2.97461 21.5345 5.39973 23.9596 8.39128 23.9596H19.2246C22.2162 23.9596 24.6413 21.5345 24.6413 18.5429V7.70957C24.6413 4.71803 22.2162 2.29291 19.2246 2.29291Z" stroke="white" strokeLinecap="round" strokeLinejoin="round"/>
<path d="M18.1413 12.4437C18.275 13.3453 18.121 14.2661 17.7012 15.0752C17.2814 15.8842 16.6172 16.5403 15.803 16.9501C14.9889 17.3598 14.0663 17.5025 13.1664 17.3577C12.2665 17.2129 11.4352 16.788 10.7907 16.1435C10.1462 15.499 9.72133 14.6677 9.57652 13.7678C9.43172 12.8679 9.57435 11.9453 9.98414 11.1311C10.3939 10.317 11.05 9.65279 11.859 9.233C12.668 8.81321 13.5889 8.65921 14.4905 8.79291C15.4101 8.92928 16.2615 9.35783 16.919 10.0152C17.5764 10.6727 18.0049 11.5241 18.1413 12.4437Z" stroke="white" strokeLinecap="round" strokeLinejoin="round"/>
<path d="M19.7666 7.16791H19.7779" stroke="white" strokeLinecap="round" strokeLinejoin="round"/>
</svg>
