<svg width="25" height="27" viewBox="0 0 25 27" fill="none" xmlns="http://www.w3.org/2000/svg">
<path d="M16.8081 8.79291C18.3994 8.79291 19.9255 9.47773 21.0507 10.6967C22.176 11.9157 22.8081 13.569 22.8081 15.2929V22.8762H18.8081V15.2929C18.8081 14.7183 18.5974 14.1672 18.2223 13.7608C17.8472 13.3545 17.3385 13.1262 16.8081 13.1262C16.2777 13.1262 15.769 13.3545 15.3939 13.7608C15.0188 14.1672 14.8081 14.7183 14.8081 15.2929V22.8762H10.8081V15.2929C10.8081 13.569 11.4402 11.9157 12.5655 10.6967C13.6907 9.47773 15.2168 8.79291 16.8081 8.79291V8.79291Z" stroke="white" strokeLinecap="round" strokeLinejoin="round"/>
<path d="M6.80811 9.87622H2.80811V22.8762H6.80811V9.87622Z" stroke="white" strokeLinecap="round" strokeLinejoin="round"/>
<path d="M4.80811 6.62624C5.91267 6.62624 6.80811 5.65619 6.80811 4.45957C6.80811 3.26296 5.91267 2.29291 4.80811 2.29291C3.70354 2.29291 2.80811 3.26296 2.80811 4.45957C2.80811 5.65619 3.70354 6.62624 4.80811 6.62624Z" stroke="white" strokeLinecap="round" strokeLinejoin="round"/>
</svg>
