<svg width="25" height="27" viewBox="0 0 25 27" fill="none" xmlns="http://www.w3.org/2000/svg">
<g clipPath="url(#clip0)">
<path d="M23.8081 3.37619C22.8505 4.10796 21.7902 4.66764 20.6681 5.03369C20.0658 4.28349 19.2654 3.75177 18.3751 3.51044C17.4848 3.26911 16.5476 3.32982 15.6902 3.68435C14.8328 4.03888 14.0965 4.67012 13.5811 5.49272C13.0656 6.31531 12.7958 7.28955 12.8081 8.28369V9.36702C11.0507 9.41639 9.30938 8.99415 7.73911 8.13792C6.16885 7.28169 4.81842 6.01804 3.80811 4.45952C3.80811 4.45952 -0.191895 14.2095 8.80811 18.5429C6.74863 20.0573 4.29526 20.8167 1.80811 20.7095C10.8081 26.1262 21.8081 20.7095 21.8081 8.25119C21.8072 7.94943 21.7804 7.64842 21.7281 7.35202C22.7487 6.26164 23.4689 4.88496 23.8081 3.37619V3.37619Z" stroke="white" strokeLinecap="round" strokeLinejoin="round"/>
</g>
<defs>
<clipPath id="clip0">
<rect width="24" height="26" fill="white" transform="translate(0.808105 0.126221)"/>
</clipPath>
</defs>
</svg>
