<svg width="43" height="43" viewBox="0 0 43 43" fill="none" xmlns="http://www.w3.org/2000/svg">
<path d="M41.1072 31.2941V37.3534C41.1095 37.9159 40.9956 38.4727 40.773 38.9881C40.5503 39.5035 40.2237 39.9662 39.8142 40.3464C39.4046 40.7267 38.9211 41.0162 38.3946 41.1964C37.868 41.3767 37.3101 41.4436 36.7566 41.393C30.6154 40.7176 24.7163 38.5938 19.5334 35.1923C14.7114 32.0912 10.6232 27.9538 7.55909 23.0736C4.18627 17.8045 2.0873 11.8053 1.43221 5.56223C1.38234 5.0037 1.44793 4.44077 1.6248 3.9093C1.80167 3.37783 2.08596 2.88945 2.45955 2.47526C2.83314 2.06107 3.28785 1.73014 3.79474 1.50355C4.30162 1.27695 4.84958 1.15966 5.40371 1.15913H11.3909C12.3594 1.14948 13.2984 1.49659 14.0328 2.13576C14.7671 2.77492 15.2468 3.66253 15.3823 4.63314C15.635 6.57225 16.1037 8.47621 16.7793 10.3087C17.0479 11.0316 17.106 11.8173 16.9468 12.5726C16.7876 13.3279 16.4178 14.0213 15.8813 14.5704L13.3467 17.1355C16.1877 22.1921 20.3247 26.3789 25.3211 29.2541L27.8556 26.689C28.3982 26.146 29.0833 25.7717 29.8296 25.6107C30.576 25.4496 31.3523 25.5084 32.0666 25.7801C33.8773 26.4639 35.7586 26.9382 37.6746 27.194C38.6441 27.3324 39.5294 27.8266 40.1623 28.5826C40.7952 29.3385 41.1315 30.3036 41.1072 31.2941Z" stroke="#E65300" stroke-width="2" stroke-linecap="round" stroke-linejoin="round"/>
</svg>
