<svg width="45" height="51" viewBox="0 0 45 51" fill="none" xmlns="http://www.w3.org/2000/svg">
<path d="M27.1318 1.64648C30.5603 2.98896 33.518 5.31064 35.6361 8.3223C37.7273 11.2916 38.8555 14.8316 38.8678 18.4634C38.8714 20.1769 39.2464 21.8693 39.9665 23.4242L43.2335 30.5111L41.242 31.1561C40.5612 31.3703 39.9641 31.7916 39.5339 32.3611C39.1161 32.9223 38.8903 33.6033 38.8893 34.303V41.39C38.8889 41.5701 38.8528 41.7485 38.783 41.9145C38.7072 42.0791 38.6012 42.2275 38.4709 42.3533C38.341 42.4851 38.1838 42.5874 38.0103 42.6516C37.8394 42.7218 37.6566 42.7575 37.4719 42.7575H27.4723L25.3463 49.9648L3.92947 44.0614L7.47292 32.0136L6.52339 31.0641C4.61409 29.1463 3.16081 26.8236 2.27124 24.2679C1.38566 21.7339 1.09455 19.03 1.42067 16.3657C1.75218 13.6946 2.68512 11.1339 4.1492 8.87527C5.63458 6.57919 7.61235 4.64252 9.93916 3.20574" stroke="#E65300" stroke-width="2" stroke-linecap="round" stroke-linejoin="round"/>
<path d="M27.3087 32.7865C27.8812 32.456 28.5437 32.3151 29.2013 32.383C29.8574 32.4434 30.4762 32.7143 30.9657 33.1554C31.4488 33.5815 31.7752 34.1573 31.8921 34.7908C32.009 35.4242 31.9099 36.0785 31.6108 36.649C31.2975 37.2317 30.7987 37.6936 30.1934 37.9605C29.5939 38.2365 28.9228 38.3161 28.2752 38.1889C27.6277 38.0617 27.0367 37.7341 26.5862 37.2518C26.1483 36.7806 25.879 36.1775 25.8208 35.5368C23.3617 34.0959 21.3483 32.0038 20.0024 29.4915C18.4492 29.7683 16.8477 29.5189 15.4523 28.7828C14.0768 28.0663 12.9905 26.8974 12.3766 25.4732C11.7746 24.0693 11.6893 22.4978 12.1358 21.0369C12.5998 19.5624 13.5586 18.293 14.8501 17.4436C14.857 12.1502 15.2191 6.86322 15.9343 1.61836C16.9018 1.41637 17.8823 1.28117 18.8684 1.21418C19.3535 1.16686 19.841 1.14787 20.3284 1.15743C21.3096 1.15977 22.2895 1.22625 23.2621 1.35606C22.4749 6.5685 22.0724 11.8316 22.0575 17.1031C23.0518 17.628 23.9011 18.3898 24.5307 19.3212C25.1505 20.24 25.5236 21.3034 25.6142 22.408C25.7048 23.5125 25.5098 24.6214 25.048 25.6289C24.5757 26.6449 23.8573 27.5268 22.9576 28.1945C23.967 30.0714 25.4595 31.6444 27.2807 32.7512L27.3087 32.7865Z" stroke="#E65300" stroke-width="2" stroke-linecap="round" stroke-linejoin="round"/>
</svg>
