<svg width="36" height="43" viewBox="0 0 36 43" fill="none" xmlns="http://www.w3.org/2000/svg">
<path d="M34.6267 18.0614C34.6267 30.7887 18.2631 41.6978 18.2631 41.6978C18.2631 41.6978 1.89941 30.7887 1.89941 18.0614C1.89941 13.7215 3.62344 9.55933 6.69221 6.49055C9.76099 3.42177 13.9231 1.69775 18.2631 1.69775C22.603 1.69775 26.7651 3.42177 29.8339 6.49055C32.9027 9.55933 34.6267 13.7215 34.6267 18.0614Z" stroke="#E65300" stroke-width="2" stroke-linecap="round" stroke-linejoin="round"/>
<path d="M18.2631 23.516C21.2756 23.516 23.7177 21.0739 23.7177 18.0615C23.7177 15.049 21.2756 12.6069 18.2631 12.6069C15.2507 12.6069 12.8086 15.049 12.8086 18.0615C12.8086 21.0739 15.2507 23.516 18.2631 23.516Z" stroke="#E65300" stroke-width="2" stroke-linecap="round" stroke-linejoin="round"/>
</svg>
