<svg width="29" height="34" viewBox="0 0 29 34" fill="none" xmlns="http://www.w3.org/2000/svg">
<path d="M13.4195 33.2756C13.1007 33.3664 12.7665 33.3955 12.436 33.3614C12.1055 33.3272 11.7853 33.2304 11.4937 33.0765C11.202 32.9226 10.9447 32.7147 10.7365 32.4646C10.5283 32.2145 10.3733 31.9272 10.2804 31.6192V31.5922L9.62121 29.3095H6.03571C5.57768 29.3095 5.12413 29.2224 4.70097 29.0532C4.2778 28.884 3.8933 28.6361 3.56943 28.3234C3.24555 28.0108 2.98864 27.6396 2.81336 27.2311C2.63808 26.8227 2.54786 26.3849 2.54786 25.9427V22.5254L1.62358 22.2291C1.02692 22.037 0.533565 21.6243 0.25175 21.0815C-0.030066 20.5387 -0.0773311 19.9101 0.120322 19.3337C0.144586 19.2628 0.172524 19.1931 0.204031 19.125L2.1642 14.8761C2.41806 14.3297 2.54884 13.7376 2.54786 13.1388C2.55033 10.4746 3.41438 7.87753 5.01944 5.71013C6.62449 3.54272 8.89047 1.91308 11.5012 1.0486C11.6302 1.91051 11.7488 2.78924 11.8499 3.68818C9.90419 4.44883 8.2373 5.75179 7.06197 7.43082C5.88663 9.10985 5.25614 11.0888 5.25094 13.1152C5.25098 14.0768 5.04185 15.0277 4.63708 15.9063L2.80247 19.8758L3.92207 20.2394C4.30627 20.3609 4.64074 20.5968 4.87758 20.9131C5.11441 21.2294 5.24144 21.6099 5.24048 22.0002V25.9629C5.24048 26.0637 5.26105 26.1636 5.30101 26.2567C5.34097 26.3498 5.39955 26.4344 5.47339 26.5057C5.54724 26.577 5.6349 26.6335 5.73139 26.6721C5.82787 26.7107 5.93128 26.7306 6.03571 26.7306H11.6407L12.83 30.7707L24.8387 27.4612L22.8506 20.7276L23.3842 20.1922C24.4644 19.1094 25.2823 17.8088 25.779 16.3841C26.2757 14.9594 26.4388 13.4461 26.2567 11.9532C26.0745 10.4603 25.5516 9.02497 24.7256 7.75065C23.8996 6.47632 22.7911 5.39471 21.4799 4.58375C21.3962 3.5333 21.2915 2.50082 21.166 1.48629C23.0419 2.29327 24.6971 3.51131 26.0002 5.0437C27.3033 6.57608 28.2183 8.38061 28.6727 10.314C29.127 12.2474 29.1081 14.2564 28.6176 16.1816C28.127 18.1067 27.1783 19.8949 25.8467 21.4043L27.4615 26.872C27.5555 27.1801 27.5853 27.5032 27.5495 27.8225C27.5137 28.1419 27.4128 28.4512 27.2527 28.7328C27.0925 29.0144 26.8763 29.2627 26.6165 29.4633C26.3567 29.664 26.0583 29.8131 25.7385 29.9021H25.7176L13.4195 33.2756ZM11.3024 20.6973C10.937 20.4844 10.5098 20.3922 10.0853 20.4346C9.66087 20.477 9.26227 20.6518 8.94987 20.9324C8.63747 21.213 8.42827 21.5842 8.35393 21.9898C8.2796 22.3954 8.34416 22.8134 8.53787 23.1804C8.73157 23.5475 9.04387 23.8436 9.42749 24.024C9.81112 24.2045 10.2452 24.2593 10.664 24.1804C11.0828 24.1014 11.4636 23.8929 11.7487 23.5864C12.0338 23.2799 12.2077 22.8921 12.2441 22.4817C13.8377 21.5416 15.1324 20.1962 15.9865 18.593C16.9862 18.771 18.0189 18.6122 18.9118 18.1431C19.8047 17.6741 20.5037 16.9233 20.8917 16.0164C21.2798 15.1094 21.3335 14.1013 21.0437 13.1608C20.754 12.2202 20.1384 11.4042 19.3 10.8494C19.2962 7.44574 19.0632 4.04596 18.6024 0.671523C17.9808 0.540273 17.3502 0.452508 16.7155 0.408912C16.4051 0.375244 16.0912 0.375244 15.7773 0.375244C15.1448 0.375838 14.5132 0.418586 13.8868 0.503183C14.3935 3.857 14.6534 7.24125 14.6646 10.6305C14.0192 10.9714 13.4719 11.4622 13.0721 12.0584C12.6724 12.6546 12.4328 13.3376 12.375 14.0456C12.3172 14.7536 12.443 15.4644 12.741 16.1137C13.0391 16.763 13.5 17.3305 14.0822 17.7648C13.4425 18.9637 12.4828 19.976 11.3024 20.6973Z" fill="#E65300"/>
</svg>
