<svg width="24" height="24" viewBox="0 0 24 24" fill="none" xmlns="http://www.w3.org/2000/svg">
<path d="M8.48135 14.6149H8.24671C4.13306 14.6149 0.753037 15.9248 0.349098 19.6107V19.6434C0.326489 20.0574 0.417132 20.4697 0.611282 20.836C0.805432 21.2023 1.09575 21.5088 1.45102 21.7225C3.54069 22.9645 5.93496 23.6001 8.36552 23.558C10.7935 23.5852 13.1827 22.9474 15.2741 21.7136C15.6298 21.4999 15.9207 21.1936 16.1159 20.8274C16.311 20.4612 16.403 20.0489 16.3819 19.6345C16.3807 19.6236 16.3807 19.6127 16.3819 19.6018C15.978 15.9248 12.595 14.6149 8.48135 14.6149Z" fill="#002E6D"/>
<path d="M22.725 4.27895H19.9776V1.53156C19.9776 1.21647 19.8524 0.914284 19.6296 0.69148C19.4068 0.468676 19.1046 0.343506 18.7895 0.343506C18.4744 0.343506 18.1722 0.468676 17.9494 0.69148C17.7266 0.914284 17.6015 1.21647 17.6015 1.53156V4.27895H14.8541C14.539 4.27895 14.2368 4.40412 14.014 4.62692C13.7912 4.84973 13.666 5.15191 13.666 5.467C13.666 5.7821 13.7912 6.08428 14.014 6.30709C14.2368 6.52989 14.539 6.65506 14.8541 6.65506H17.6015V9.40245C17.6015 9.71754 17.7266 10.0197 17.9494 10.2425C18.1722 10.4653 18.4744 10.5905 18.7895 10.5905C19.1046 10.5905 19.4068 10.4653 19.6296 10.2425C19.8524 10.0197 19.9776 9.71754 19.9776 9.40245V6.65506H22.725C23.04 6.65506 23.3422 6.52989 23.565 6.30709C23.7878 6.08428 23.913 5.7821 23.913 5.467C23.913 5.15191 23.7878 4.84973 23.565 4.62692C23.3422 4.40412 23.04 4.27895 22.725 4.27895Z" fill="#002E6D"/>
<path d="M8.36568 13.029C10.6438 13.029 12.5001 10.7538 12.5001 7.94704C12.5001 5.14025 10.6527 3.49182 8.37459 3.49182C6.09649 3.49182 4.24609 5.13134 4.24609 7.94704C4.24609 10.7627 6.08461 13.029 8.36568 13.029Z" fill="#002E6D"/>
</svg>
