<?xml version="1.0" encoding="UTF-8" standalone="no"?>
<svg xmlns:dc="http://purl.org/dc/elements/1.1/" xmlns:cc="http://creativecommons.org/ns#" xmlns:rdf="http://www.w3.org/1999/02/22-rdf-syntax-ns#" xmlns:svg="http://www.w3.org/2000/svg" xmlns="http://www.w3.org/2000/svg" xmlns:sodipodi="http://sodipodi.sourceforge.net/DTD/sodipodi-0.dtd" xmlns:inkscape="http://www.inkscape.org/namespaces/inkscape" id="Calque_1" data-name="Calque 1" viewBox="0 0 655.38098 196.83229" version="1.1" sodipodi:docname="assets/img/byvets_RVB.svg" width="655.38098" height="196.83229" inkscape:version="0.92.4 (5da689c313, 2019-01-14)">
  <metadata id="metadata31">
    <rdf:RDF>
      <cc:Work rdf:about="">
        <dc:format>image/svg+xml</dc:format>
        <dc:type rdf:resource="http://purl.org/dc/dcmitype/StillImage"/>
        <dc:title/>
      </cc:Work>
    </rdf:RDF>
  </metadata>
  <sodipodi:namedview pagecolor="#ffffff" bordercolor="#666666" borderopacity="1" objecttolerance="10" gridtolerance="10" guidetolerance="10" inkscape:pageopacity="0" inkscape:pageshadow="2" inkscape:window-width="716" inkscape:window-height="480" id="namedview29" showgrid="false" inkscape:zoom="0.38562092" inkscape:cx="319.27171" inkscape:cy="122.84115" inkscape:window-x="0" inkscape:window-y="0" inkscape:window-maximized="0" inkscape:current-layer="Calque_1"/>
  <defs id="defs4">
    <style id="style2">.cls-1{fill:#2b4878;}.cls-2{fill:#ec671b;}.cls-3{fill:#ea5b0c;}</style>
  </defs>
  <path className="cls-1" d="M 158.27171,149.70115 V 24.991148 h 10.12 v 54.79 a 35.32,35.32 0 0 1 13.15,-13.82 36.23,36.23 0 0 1 19.05,-5.06 38.48,38.48 0 0 1 16.27,3.45 39.59,39.59 0 0 1 13.07,9.7 46.08,46.08 0 0 1 8.68,14.5 53.71,53.71 0 0 1 0,36.080002 45,45 0 0 1 -8.77,14.5 40.14,40.14 0 0 1 -13.23,9.69 39.06,39.06 0 0 1 -16.34,3.41 38,38 0 0 1 -13.16,-2.24 33.54,33.54 0 0 1 -11.12,-6.66 35.45,35.45 0 0 1 -7.93,-10.34 l -0.67,16.69 z m 41.49,-6.71 a 29.9,29.9 0 0 0 12.73,-2.7 29.57,29.57 0 0 0 10,-7.59 35.72,35.72 0 0 0 6.57,-11.55 46.25,46.25 0 0 0 0,-29.170002 35.78,35.78 0 0 0 -6.57,-11.54 29.57,29.57 0 0 0 -10,-7.59 31.36,31.36 0 0 0 -25.46,0 29.48,29.48 0 0 0 -10,7.59 36,36 0 0 0 -6.61,11.55 46.25,46.25 0 0 0 0,29.170002 35.93,35.93 0 0 0 6.58,11.55 29.48,29.48 0 0 0 10,7.59 29.87,29.87 0 0 0 12.76,2.69 z" id="path6" inkscape:connector-curvature="0" style="fill:#2b4878"/>
  <path className="cls-1" d="m 255.04171,186.29115 a 25.38,25.38 0 0 1 -6,-0.68 21,21 0 0 1 -5.64,-2.36 l 3.54,-8.26 a 15.07,15.07 0 0 0 7.92,2 14.31,14.31 0 0 0 9.44,-3.54 q 4.21,-3.54 7.25,-11 l 5.4,-13.48 -36.08,-85.650002 h 11.12 l 30.18,74.350002 27.15,-74.350002 h 10.79 l -39.61,101.720002 q -4.22,11 -10.54,16.1 a 22.91,22.91 0 0 1 -14.92,5.15 z" id="path8" inkscape:connector-curvature="0" style="fill:#2b4878"/>
  <path className="cls-1" d="m 362.92171,149.70115 -45.52,-119.710002 h 27.48 l 32.2,91.880002 32,-91.880002 h 26.47 l -45.48,119.710002 z" id="path10" inkscape:connector-curvature="0" style="fill:#2b4878"/>
  <path className="cls-1" d="m 469.40171,152.23115 a 47.41,47.41 0 0 1 -18.29,-3.46 41.85,41.85 0 0 1 -14.41,-9.78 44.55,44.55 0 0 1 -9.43,-15 51.92,51.92 0 0 1 -3.38,-19 50.28,50.28 0 0 1 3.38,-18.510002 45.59,45.59 0 0 1 9.35,-14.93 42.9,42.9 0 0 1 31.65,-13.4 45.56,45.56 0 0 1 17.79,3.37 39,39 0 0 1 13.74,9.61 43.71,43.71 0 0 1 8.8,14.86 56,56 0 0 1 3.12,19.220002 v 5.9 h -63.9 q 1.51,9.94 7.25,15.59 a 19.8,19.8 0 0 0 14.5,5.65 21.69,21.69 0 0 0 11,-2.86 22.66,22.66 0 0 0 8.18,-8.26 l 21.11,6.76 a 33.89,33.89 0 0 1 -9.1,13 43.48,43.48 0 0 1 -14.16,8.35 50,50 0 0 1 -17.2,2.89 z m -1.13,-75.870002 a 18.22,18.22 0 0 0 -13.06,5.06 q -5.31,5.06 -7,13.82 h 39.28 q -1.35,-8.76 -6.49,-13.82 a 17.45,17.45 0 0 0 -12.73,-5.06 z" id="path12" inkscape:connector-curvature="0" style="fill:#2b4878"/>
  <path className="cls-1" d="m 559.75171,152.23115 a 32.83,32.83 0 0 1 -15.93,-3.63 24.79,24.79 0 0 1 -10.29,-10.53 q -3.62,-6.91 -3.62,-16.86 V 79.731148 h -15.17 v -19.05 h 15.17 v -30.35 h 23.6 v 30.35 h 24.28 v 19.05 h -24.28 v 38.610002 q 0,6.4 2.7,9.86 2.7,3.46 8.26,3.46 a 24.89,24.89 0 0 0 6.15,-0.84 39.78,39.78 0 0 0 6.33,-2.2 l 4.21,17.71 a 40.55,40.55 0 0 1 -9.78,4.3 41,41 0 0 1 -11.63,1.6 z" id="path14" inkscape:connector-curvature="0" style="fill:#2b4878"/>
  <path className="cls-1" d="m 619.27171,152.23115 a 46.06,46.06 0 0 1 -17.12,-3 35.92,35.92 0 0 1 -13,-8.6 29.82,29.82 0 0 1 -7.33,-13.15 l 21.24,-4.55 a 15.59,15.59 0 0 0 6.07,8.27 17.92,17.92 0 0 0 10.45,3 16.5,16.5 0 0 0 9.45,-2.53 7.94,7.94 0 0 0 3.7,-6.91 7.39,7.39 0 0 0 -3.28,-6.16 q -3.3,-2.44 -10.88,-3.79 l -4.72,-0.84 q -14.5,-2.54 -22,-9.45 a 22.79,22.79 0 0 1 -7.5,-17.530002 26,26 0 0 1 4.38,-14.92 29.78,29.78 0 0 1 12.14,-10.2 41,41 0 0 1 17.87,-3.71 43.36,43.36 0 0 1 16.27,2.95 32.64,32.64 0 0 1 12.26,8.34 29.39,29.39 0 0 1 6.75,13 l -21.08,4.38 a 15.89,15.89 0 0 0 -5.48,-7.92 14.26,14.26 0 0 0 -8.85,-2.87 14,14 0 0 0 -8.6,2.53 7.7,7.7 0 0 0 -3.37,6.41 6.71,6.71 0 0 0 3.29,5.65 q 3.29,2.26 11.21,3.62 l 4.72,0.84 q 14.32,2.54 21.92,9.530002 a 23.12,23.12 0 0 1 7.59,17.79 27,27 0 0 1 -2.62,12 28,28 0 0 1 -7.5,9.44 35.22,35.22 0 0 1 -11.46,6.24 45.71,45.71 0 0 1 -14.52,2.14 z" id="path16" inkscape:connector-curvature="0" style="fill:#2b4878"/>
  <path className="cls-2" d="m 45.271713,93.601148 h -8.33 v -18.47 a 22.39,22.39 0 0 1 18.8,-21.92 v -4.49 a 4.22,4.22 0 0 0 -4.12,-4.14 12.58,12.58 0 0 1 -12.59,-12.44 v -7.1 h 8.33 v 7.07 a 4.22,4.22 0 0 0 4.12,4.14 12.57,12.57 0 0 1 12.58,12.43 v 4.77 a 22.33,22.33 0 0 1 17.6,21.65 v 18 h -8.33 v -18 a 14.035,14.035 0 0 0 -28.07,0 z" id="path18" inkscape:connector-curvature="0" style="fill:#ec671b"/>
  <path className="cls-2" d="m 59.521713,87.251148 a 4.17,4.17 0 0 1 -4.16,-4.17 v -9.49 a 4.17,4.17 0 1 1 8.33,0 v 9.49 a 4.17,4.17 0 0 1 -4.17,4.17 z" id="path20" inkscape:connector-curvature="0" style="fill:#ec671b"/>
  <path className="cls-1" d="m 81.901713,105.65115 a 1,1 0 0 0 -0.19,-0.6 4.09,4.09 0 0 0 -7.91,-0.11 1.22,1.22 0 0 0 -0.23,0.7 v 5.35 a 14.035,14.035 0 0 1 -28.07,0 v -5.38 a 1.1,1.1 0 0 0 -0.2,-0.63 4.09,4.09 0 0 0 -7.9,-0.06 1.17,1.17 0 0 0 -0.23,0.69 v 5.41 a 22.44,22.44 0 0 0 11.78,19.52 c 0.13,0.08 0.27,0.14 0.62,0.31 a 23.41,23.41 0 0 0 2.7,1.14 c 0.05,0.09 0.09,0.18 0.15,0.27 l 2.95,5.11 v 13.16 a 12.94,12.94 0 0 0 1.35,24.9 13.29,13.29 0 0 0 2.79,0.29 12.93,12.93 0 0 0 4.19,-25.19 v -13.12 l 2.95,-5.12 0.15,-0.27 a 25,25 0 0 0 2.92,-1.24 c 0.14,-0.07 0.28,-0.13 0.53,-0.28 a 22.39,22.39 0 0 0 11.16,-15 21.84,21.84 0 0 0 0.49,-4.5 v -5.39 z m -16.72,55.67 a 5.83,5.83 0 1 1 -4.21,-4.18 5.78,5.78 0 0 1 4.21,4.18 z" id="path22" inkscape:connector-curvature="0" style="fill:#2b4878"/>
  <path className="cls-3" d="m 59.271713,11.111148 a 48.09,48.09 0 0 1 47.999997,47.59 v 30.78 a 5.87,5.87 0 0 0 4.26,5.79 5.7,5.7 0 0 0 7.11,-5.51 v -31.1 c 0,-0.13 0,-0.26 0,-0.39 a 59.33,59.33 0 0 0 -118.6399975,-0.06 c 0,0.18 0,0.32 0,0.45 v 30.46 a 5.87,5.87 0 0 0 4.27,5.79 5.69,5.69 0 0 0 7.1000005,-5.5 v -30.72 a 48.08,48.08 0 0 1 47.9,-47.58 z" id="path24" inkscape:connector-curvature="0" style="fill:#ea5b0c"/>
  <path className="cls-1" d="m 5.2717125,101.56115 a 5.86,5.86 0 0 0 -4.26,5.79 v 30.81 c 0,0.14 0,0.27 0,0.4 a 59.33,59.33 0 0 0 118.6399975,0.06 c 0,-0.19 0,-0.32 0,-0.46 v -30.46 a 5.87,5.87 0 0 0 -4.26,-5.79 5.69,5.69 0 0 0 -7.1,5.51 v 30.7 a 48,48 0 0 1 -95.919997,0 v -31.06 a 5.69,5.69 0 0 0 -7.1000005,-5.5 z" id="path26" inkscape:connector-curvature="0" style="fill:#2b4878"/>
</svg>