<svg width="31" height="34" viewBox="0 0 31 34" fill="none" xmlns="http://www.w3.org/2000/svg">
<path d="M5.77766 22.2077C7.87048 22.2077 9.56705 20.5111 9.56705 18.4183C9.56705 16.3255 7.87048 14.6289 5.77766 14.6289C3.68485 14.6289 1.98828 16.3255 1.98828 18.4183C1.98828 20.5111 3.68485 22.2077 5.77766 22.2077Z" fill="#E65300"/>
<path d="M7.20391 23.2158H4.38794C3.40465 23.2208 2.45676 23.5834 1.72112 24.2359C0.985484 24.8884 0.512343 25.7862 0.38997 26.7618L0.00755487 30.0298C-0.0201134 30.2314 0.0288025 30.4361 0.144649 30.6034C0.260496 30.7707 0.434857 30.8886 0.633324 30.9336C2.3253 31.2878 4.04991 31.4626 5.77854 31.4551C6.50861 31.4551 7.23867 31.4204 7.93397 31.3508L8.28162 28.4306C8.4543 26.9706 9.19029 25.6359 10.3328 24.7107C9.95459 24.2453 9.47769 23.8697 8.93657 23.6111C8.39544 23.3526 7.80362 23.2176 7.20391 23.2158Z" fill="#E65300"/>
<path d="M24.9691 22.2077C27.0619 22.2077 28.7585 20.5111 28.7585 18.4183C28.7585 16.3255 27.0619 14.6289 24.9691 14.6289C22.8763 14.6289 21.1797 16.3255 21.1797 18.4183C21.1797 20.5111 22.8763 22.2077 24.9691 22.2077Z" fill="#E65300"/>
<path d="M30.3568 26.7619C30.2402 25.7838 29.7688 24.8825 29.0319 24.2289C28.295 23.5753 27.3439 23.2149 26.3589 23.2158H23.5429C22.9394 23.2162 22.344 23.3542 21.8018 23.6193C21.2596 23.8843 20.785 24.2695 20.4141 24.7455C21.5565 25.6707 22.2925 27.0054 22.4652 28.4653L22.8128 31.3856C23.5081 31.4551 24.2382 31.4899 24.9683 31.4899C26.6969 31.4974 28.4215 31.3226 30.1135 30.9684C30.3128 30.9248 30.4881 30.8073 30.6042 30.6396C30.7203 30.4719 30.7686 30.2664 30.7393 30.0645L30.3568 26.7619Z" fill="#E65300"/>
<path d="M16.7648 25.1279H13.9836C12.9987 25.127 12.0476 25.4874 11.3107 26.141C10.5738 26.7946 10.1023 27.6959 9.98567 28.674L9.60326 31.9419C9.57559 32.1435 9.62451 32.3482 9.74035 32.5155C9.8562 32.6828 10.0306 32.8007 10.229 32.8458C11.921 33.2 13.6456 33.3747 15.3742 33.3672C17.1029 33.3747 18.8275 33.2 20.5195 32.8458C20.7187 32.8022 20.8941 32.6847 21.0102 32.5169C21.1263 32.3492 21.1746 32.1437 21.1452 31.9419L20.7628 28.674C20.6462 27.6959 20.1747 26.7946 19.4378 26.141C18.7009 25.4874 17.7498 25.127 16.7648 25.1279Z" fill="#E65300"/>
<path d="M15.3734 24.1198C17.4662 24.1198 19.1627 22.4232 19.1627 20.3304C19.1627 18.2376 17.4662 16.541 15.3734 16.541C13.2805 16.541 11.584 18.2376 11.584 20.3304C11.584 22.4232 13.2805 24.1198 15.3734 24.1198Z" fill="#E65300"/>
<path d="M8.97736 10.8743H12.7667L14.1921 13.6902C14.3055 13.9106 14.4774 14.0955 14.689 14.2246C14.9006 14.3536 15.1437 14.4219 15.3915 14.4219C15.6393 14.4219 15.8824 14.3536 16.094 14.2246C16.3056 14.0955 16.4775 13.9106 16.5909 13.6902L18.0163 10.8743H21.8056C22.2932 10.8706 22.7597 10.6753 23.1045 10.3306C23.4493 9.98582 23.6445 9.51927 23.6482 9.03172V2.21779C23.6445 1.73024 23.4493 1.26369 23.1045 0.918934C22.7597 0.574176 22.2932 0.378883 21.8056 0.375244H8.97736C8.48981 0.378883 8.02327 0.574176 7.67851 0.918934C7.33375 1.26369 7.13846 1.73024 7.13482 2.21779V8.99696C7.13111 9.48997 7.32294 9.96437 7.66829 10.3162C8.01364 10.6681 8.48436 10.8688 8.97736 10.8743ZM19.7197 4.26892C19.981 4.26892 20.2364 4.3464 20.4537 4.49156C20.6709 4.63672 20.8403 4.84305 20.9402 5.08444C21.0402 5.32583 21.0664 5.59146 21.0154 5.84772C20.9645 6.10398 20.8386 6.33937 20.6539 6.52413C20.4691 6.70888 20.2337 6.8347 19.9775 6.88568C19.7212 6.93665 19.4556 6.91049 19.2142 6.8105C18.9728 6.71051 18.7665 6.54119 18.6213 6.32394C18.4762 6.10669 18.3987 5.85127 18.3987 5.58999C18.3987 5.41651 18.4328 5.24472 18.4992 5.08444C18.5656 4.92416 18.6629 4.77853 18.7856 4.65585C18.9083 4.53318 19.0539 4.43587 19.2142 4.36948C19.3745 4.30309 19.5463 4.26892 19.7197 4.26892ZM15.3741 4.26892C15.6354 4.26892 15.8908 4.3464 16.1081 4.49156C16.3253 4.63672 16.4946 4.84305 16.5946 5.08444C16.6946 5.32583 16.7208 5.59146 16.6698 5.84772C16.6188 6.10398 16.493 6.33937 16.3083 6.52413C16.1235 6.70888 15.8881 6.8347 15.6318 6.88568C15.3756 6.93665 15.11 6.91049 14.8686 6.8105C14.6272 6.71051 14.4209 6.54119 14.2757 6.32394C14.1305 6.10669 14.053 5.85127 14.053 5.58999C14.053 5.23962 14.1922 4.9036 14.44 4.65585C14.6877 4.40811 15.0237 4.26892 15.3741 4.26892ZM11.0285 4.26892C11.2898 4.26892 11.5452 4.3464 11.7624 4.49156C11.9797 4.63672 12.149 4.84305 12.249 5.08444C12.349 5.32583 12.3752 5.59146 12.3242 5.84772C12.2732 6.10398 12.1474 6.33937 11.9626 6.52413C11.7779 6.70888 11.5425 6.8347 11.2862 6.88568C11.03 6.93665 10.7643 6.91049 10.5229 6.8105C10.2816 6.71051 10.0752 6.54119 9.93007 6.32394C9.78491 6.10669 9.70743 5.85127 9.70743 5.58999C9.70743 5.23962 9.84661 4.9036 10.0944 4.65585C10.3421 4.40811 10.6781 4.26892 11.0285 4.26892Z" fill="#E65300"/>
</svg>
