<svg width="35" height="34" viewBox="0 0 35 34" fill="none" xmlns="http://www.w3.org/2000/svg">
<path d="M12.314 20.6606H11.9805C6.13334 20.6606 1.32898 22.5224 0.754825 27.7616V27.8081C0.72269 28.3965 0.851529 28.9825 1.12749 29.5032C1.40346 30.0239 1.81611 30.4596 2.3211 30.7633C5.29134 32.5287 8.69454 33.4322 12.1493 33.3723C15.6005 33.411 18.9965 32.5043 21.9691 30.7506C22.4747 30.4469 22.8883 30.0116 23.1657 29.491C23.443 28.9705 23.5737 28.3844 23.5438 27.7954C23.5421 27.78 23.5421 27.7644 23.5438 27.749C22.9697 22.5224 18.1611 20.6606 12.314 20.6606Z" fill="#E65300"/>
<path d="M32.5619 5.96907H28.6568V2.06395C28.6568 1.61607 28.4789 1.18655 28.1622 0.869853C27.8455 0.55316 27.4159 0.375244 26.9681 0.375244C26.5202 0.375244 26.0907 0.55316 25.774 0.869853C25.4573 1.18655 25.2794 1.61607 25.2794 2.06395V5.96907H21.3742C20.9264 5.96907 20.4968 6.14698 20.1802 6.46368C19.8635 6.78037 19.6855 7.2099 19.6855 7.65777C19.6855 8.10564 19.8635 8.53517 20.1802 8.85186C20.4968 9.16855 20.9264 9.34647 21.3742 9.34647H25.2794V13.2516C25.2794 13.6995 25.4573 14.129 25.774 14.4457C26.0907 14.7624 26.5202 14.9403 26.9681 14.9403C27.4159 14.9403 27.8455 14.7624 28.1622 14.4457C28.4789 14.129 28.6568 13.6995 28.6568 13.2516V9.34647H32.5619C33.0098 9.34647 33.4393 9.16855 33.756 8.85186C34.0727 8.53517 34.2506 8.10564 34.2506 7.65777C34.2506 7.2099 34.0727 6.78037 33.756 6.46368C33.4393 6.14698 33.0098 5.96907 32.5619 5.96907Z" fill="#E65300"/>
<path d="M12.1485 18.4064C15.3866 18.4064 18.0252 15.1725 18.0252 11.183C18.0252 7.19341 15.3993 4.85034 12.1612 4.85034C8.92312 4.85034 6.29297 7.18075 6.29297 11.183C6.29297 15.1852 8.90623 18.4064 12.1485 18.4064Z" fill="#E65300"/>
</svg>
