<svg width="269" height="201" viewBox="0 0 269 201" fill="none" xmlns="http://www.w3.org/2000/svg">
<path d="M102.879 100.418H37.0508V166.246H102.879V100.418Z" stroke="#E65300" stroke-width="5" stroke-linecap="round" stroke-linejoin="round"/>
<path d="M37.0508 44.8499H189.571" stroke="#E65300" stroke-width="5" stroke-linecap="round" stroke-linejoin="round"/>
<path d="M37.0508 74.9751H189.571" stroke="#E65300" stroke-width="5" stroke-linecap="round" stroke-linejoin="round"/>
<path d="M120.23 100.418H189.57" stroke="#E65300" stroke-width="5" stroke-linecap="round" stroke-linejoin="round"/>
<path d="M120.23 133.332H189.57" stroke="#E65300" stroke-width="5" stroke-linecap="round" stroke-linejoin="round"/>
<path d="M120.23 166.281H189.57" stroke="#E65300" stroke-width="5" stroke-linecap="round" stroke-linejoin="round"/>
<path d="M257.844 65.4038H223.415V6.87466C223.415 5.73327 222.961 4.63863 222.154 3.83155C221.347 3.02446 220.253 2.57104 219.111 2.57104H7.16689C6.0255 2.57104 4.93086 3.02446 4.12378 3.83155C3.3167 4.63863 2.86328 5.73327 2.86328 6.87466V193.996C2.86328 195.137 3.3167 196.232 4.12378 197.039C4.93086 197.846 6.0255 198.299 7.16689 198.299H241.559C244.754 198.304 247.918 197.678 250.871 196.459C253.824 195.239 256.508 193.45 258.769 191.192C261.029 188.935 262.823 186.254 264.046 183.302C265.27 180.351 265.9 177.187 265.9 173.993V73.4601C265.9 71.3234 265.051 69.2743 263.54 67.7634C262.03 66.2526 259.98 65.4038 257.844 65.4038Z" stroke="#E65300" stroke-width="5" stroke-miterlimit="10" stroke-linecap="round" stroke-linejoin="round"/>
<path d="M223.483 65.4038V198.334" stroke="#E65300" stroke-width="5" stroke-miterlimit="10" stroke-linecap="round" stroke-linejoin="round"/>
</svg>
