<svg width="96" height="79" viewBox="0 0 96 79" fill="none" xmlns="http://www.w3.org/2000/svg">
<path d="M87.1987 0.336304H9.03891C6.73566 0.336304 4.52675 1.25127 2.89811 2.87991C1.26946 4.50855 0.354492 6.71747 0.354492 9.02072V22.0473H9.03891V9.02072H87.1987V69.8116H56.8032V78.496H87.1987C89.5019 78.496 91.7108 77.5811 93.3395 75.9524C94.9681 74.3238 95.8831 72.1149 95.8831 69.8116V9.02072C95.8831 7.88027 95.6584 6.75098 95.222 5.69734C94.7856 4.6437 94.1459 3.68633 93.3395 2.87991C92.533 2.07349 91.5757 1.4338 90.522 0.997366C89.4684 0.560933 88.3391 0.336304 87.1987 0.336304ZM0.354492 65.4694V78.496H13.3811C13.3811 75.0412 12.0087 71.7278 9.56572 69.2848C7.12275 66.8419 3.80937 65.4694 0.354492 65.4694ZM0.354492 48.1006V56.785C6.11262 56.785 11.6349 59.0724 15.7065 63.144C19.7781 67.2156 22.0655 72.7379 22.0655 78.496H30.7499C30.7499 70.4347 27.5476 62.7035 21.8473 57.0032C16.1471 51.303 8.41587 48.1006 0.354492 48.1006ZM0.354492 30.7318V39.4162C10.7191 39.4162 20.6592 43.5335 27.9881 50.8624C35.317 58.1913 39.4344 68.1314 39.4344 78.496H48.1188C48.1188 65.8282 43.0865 53.6791 34.1289 44.7216C25.1714 35.7641 13.0224 30.7318 0.354492 30.7318ZM43.7766 35.4648V44.1492L59.0611 52.4428L74.2589 44.1492V35.4648L59.0611 43.7584L43.7766 35.4648ZM59.0611 13.3629L35.179 26.3896L59.0611 39.4162L82.9433 26.3896L59.0611 13.3629Z" fill="#E65300"/>
</svg>
