<svg width="97" height="97" viewBox="0 0 97 97" fill="none" xmlns="http://www.w3.org/2000/svg">
<path d="M86.8674 20.0224H67.7614V10.4694C67.7614 7.93577 66.7549 5.50593 64.9634 3.71439C63.1718 1.92286 60.742 0.916382 58.2084 0.916382H39.1024C36.5688 0.916382 34.1389 1.92286 32.3474 3.71439C30.5559 5.50593 29.5494 7.93577 29.5494 10.4694V20.0224H10.4434C7.90977 20.0224 5.47992 21.0289 3.68839 22.8204C1.89685 24.6119 0.890381 27.0418 0.890381 29.5754V86.8934C0.890381 89.427 1.89685 91.8568 3.68839 93.6484C5.47992 95.4399 7.90977 96.4464 10.4434 96.4464H86.8674C89.401 96.4464 91.8308 95.4399 93.6224 93.6484C95.4139 91.8568 96.4204 89.427 96.4204 86.8934V29.5754C96.4204 27.0418 95.4139 24.6119 93.6224 22.8204C91.8308 21.0289 89.401 20.0224 86.8674 20.0224ZM39.1024 10.4694H58.2084V20.0224H39.1024V10.4694ZM67.7614 63.0109H53.4319V77.3404H43.8789V63.0109H29.5494V53.4579H43.8789V39.1284H53.4319V53.4579H67.7614V63.0109Z" fill="#E65300"/>
</svg>
