<svg width="96" height="118" viewBox="0 0 96 118" fill="none" xmlns="http://www.w3.org/2000/svg">
<path d="M95.9275 21.9254L48.1625 0.696533L0.397461 21.9254V53.7688C0.397461 83.2238 20.7772 110.768 48.1625 117.455C60.3711 114.325 71.2874 107.437 79.3689 97.7656L62.8104 81.2071C57.3229 84.8275 50.6869 86.2821 44.1882 85.2889C37.6895 84.2958 31.7908 80.9257 27.6351 75.8317C23.4794 70.7376 21.3625 64.2823 21.6947 57.7166C22.0269 51.1508 24.7844 44.9421 29.433 40.2935C34.0817 35.6449 40.2904 32.8873 46.8561 32.5551C53.4219 32.223 59.8772 34.3398 64.9712 38.4956C70.0653 42.6513 73.4354 48.55 74.4285 55.0487C75.4216 61.5474 73.967 68.1834 70.3467 73.6708L85.7376 89.0618C92.3313 78.4655 95.8585 66.2488 95.9275 53.7688V21.9254Z" fill="#E65300"/>
<path d="M48.1624 74.9976C56.9557 74.9976 64.0841 67.8693 64.0841 59.076C64.0841 50.2827 56.9557 43.1543 48.1624 43.1543C39.3691 43.1543 32.2407 50.2827 32.2407 59.076C32.2407 67.8693 39.3691 74.9976 48.1624 74.9976Z" fill="#E65300"/>
</svg>
