<svg width="97" height="96" viewBox="0 0 97 96" fill="none" xmlns="http://www.w3.org/2000/svg">
<path d="M85.5376 0.310791H11.2365C8.42139 0.310791 5.72156 1.42909 3.73097 3.41969C1.74037 5.41028 0.62207 8.11011 0.62207 10.9252V85.2263C0.62207 88.0415 1.74037 90.7413 3.73097 92.7319C5.72156 94.7225 8.42139 95.8408 11.2365 95.8408H85.5376C88.3528 95.8408 91.0526 94.7225 93.0432 92.7319C95.0338 90.7413 96.1521 88.0415 96.1521 85.2263V10.9252C96.1521 8.11011 95.0338 5.41028 93.0432 3.41969C91.0526 1.42909 88.3528 0.310791 85.5376 0.310791ZM53.6943 21.8581L59.4792 16.2325L66.9623 23.7156L74.4455 16.2325L80.2304 21.8581L72.588 29.3413L80.2304 36.8245L74.6048 42.4501L66.9623 35.02L59.4792 42.7686L53.6943 36.8776L61.1775 29.3944L53.6943 21.8581ZM17.7113 25.3609H44.2474V33.3217H17.7113V25.3609ZM45.7335 69.3047H35.119V79.9191H27.1582V69.3047H16.5437V61.3438H27.1582V50.7294H35.119V61.3438H45.7335V69.3047ZM80.2304 75.9387H53.6943V67.9779H80.2304V75.9387ZM80.2304 62.6707H53.6943V54.7098H80.2304V62.6707Z" fill="#E65300"/>
</svg>
