<svg width="96" height="96" viewBox="0 0 96 96" fill="none" xmlns="http://www.w3.org/2000/svg">
<path d="M75.7052 70.2125C75.1763 70.2125 74.669 70.4226 74.295 70.7966C73.921 71.1706 73.7109 71.6779 73.7109 72.2068C73.7109 72.7357 73.921 73.243 74.295 73.617C74.669 73.991 75.1763 74.2011 75.7052 74.2011C75.9717 74.2187 76.2388 74.1792 76.4888 74.0852C76.7387 73.9912 76.9657 73.8449 77.1545 73.6561C77.3433 73.4673 77.4896 73.2403 77.5836 72.9904C77.6776 72.7404 77.7171 72.4733 77.6995 72.2068C77.6995 71.6779 77.4894 71.1706 77.1154 70.7966C76.7414 70.4226 76.2341 70.2125 75.7052 70.2125Z" fill="#E65300"/>
<path d="M90.8615 56.6513V53.0616C90.8615 49.0418 89.2646 45.1867 86.4222 42.3443C83.5798 39.5019 79.7247 37.905 75.7049 37.905C71.6852 37.905 67.8301 39.5019 64.9877 42.3443C62.1453 45.1867 60.5484 49.0418 60.5484 53.0616V56.6513C59.1812 56.6768 57.8772 57.2313 56.9103 58.1982C55.9433 59.1652 55.3888 60.4692 55.3633 61.8364V90.3546C55.3888 91.7218 55.9433 93.0259 56.9103 93.9928C57.8772 94.9597 59.1812 95.5142 60.5484 95.5397H90.6621C92.0292 95.5142 93.3333 94.9597 94.3002 93.9928C95.2671 93.0259 95.8216 91.7218 95.8472 90.3546V61.8364C95.8741 61.1651 95.765 60.4953 95.5265 59.8672C95.288 59.2391 94.925 58.6656 94.4593 58.1813C93.9937 57.697 93.4349 57.3119 92.8166 57.0489C92.1984 56.786 91.5333 56.6507 90.8615 56.6513ZM77.6992 77.7907V83.7735C77.6992 84.3024 77.4891 84.8097 77.1151 85.1837C76.7411 85.5577 76.2339 85.7678 75.7049 85.7678C75.176 85.7678 74.6688 85.5577 74.2948 85.1837C73.9208 84.8097 73.7107 84.3024 73.7107 83.7735V77.7907C72.5385 77.4049 71.5199 76.6555 70.8026 75.6513C70.0854 74.6472 69.7069 73.4406 69.7221 72.2067C69.7221 70.6199 70.3524 69.0982 71.4744 67.9762C72.5964 66.8542 74.1182 66.2238 75.7049 66.2238C77.2917 66.2238 78.8135 66.8542 79.9355 67.9762C81.0575 69.0982 81.6878 70.6199 81.6878 72.2067C81.703 73.4406 81.3245 74.6472 80.6073 75.6513C79.89 76.6555 78.8714 77.4049 77.6992 77.7907ZM86.8729 56.6513H64.7364V53.0616C64.7364 50.0996 65.913 47.259 68.0074 45.1646C70.1018 43.0702 72.9424 41.8936 75.9044 41.8936C78.8663 41.8936 81.7069 43.0702 83.8013 45.1646C85.8957 47.259 87.0723 50.0996 87.0723 53.0616V56.6513H86.8729Z" fill="#E65300"/>
<path d="M65.9331 0.612061H21.0618V11.1818C21.0112 13.2286 20.1756 15.1776 18.7278 16.6254C17.28 18.0732 15.331 18.9089 13.2841 18.9594H0.321289V80.5827C0.321289 82.1695 0.951622 83.6912 2.07362 84.8132C3.19562 85.9352 4.71738 86.5656 6.30413 86.5656H51.5743V61.8365C51.5855 60.1246 52.0775 58.4504 52.9943 57.0047C53.9111 55.5589 55.2158 54.4 56.7594 53.6599V53.0616C56.7199 49.2034 57.9071 45.4323 60.1497 42.2925C59.9503 42.2925 59.7509 42.492 59.352 42.492H12.8853C12.3563 42.492 11.8491 42.2818 11.4751 41.9078C11.1011 41.5338 10.891 41.0266 10.891 40.4977C10.891 39.9688 11.1011 39.4615 11.4751 39.0875C11.8491 38.7135 12.3563 38.5034 12.8853 38.5034H59.352C59.8687 38.5404 60.3547 38.7624 60.721 39.1287C61.0872 39.495 61.3092 39.981 61.3463 40.4977V40.6971C64.0359 37.4611 67.777 35.2729 71.916 34.5148V6.5949C71.8756 5.02088 71.2323 3.52247 70.1189 2.4091C69.0056 1.29574 67.5072 0.65244 65.9331 0.612061ZM46.1898 75.597H12.8853C12.3563 75.597 11.8491 75.3869 11.4751 75.0129C11.1011 74.6389 10.891 74.1317 10.891 73.6027C10.8734 73.3363 10.9129 73.0691 11.0068 72.8192C11.1008 72.5692 11.2471 72.3423 11.436 72.1534C11.6248 71.9646 11.8518 71.8183 12.1017 71.7243C12.3517 71.6303 12.6188 71.5908 12.8853 71.6085H46.1898C46.7187 71.6085 47.2259 71.8186 47.5999 72.1926C47.9739 72.5666 48.184 73.0738 48.184 73.6027C48.147 74.1194 47.925 74.6054 47.5587 74.9717C47.1924 75.338 46.7064 75.56 46.1898 75.597ZM46.1898 64.4291H12.8853C12.3563 64.4291 11.8491 64.2189 11.4751 63.8449C11.1011 63.4709 10.891 62.9637 10.891 62.4348C10.891 61.9059 11.1011 61.3986 11.4751 61.0246C11.8491 60.6506 12.3563 60.4405 12.8853 60.4405H46.1898C46.7187 60.4405 47.2259 60.6506 47.5999 61.0246C47.9739 61.3986 48.184 61.9059 48.184 62.4348C48.184 62.9637 47.9739 63.4709 47.5999 63.8449C47.2259 64.2189 46.7187 64.4291 46.1898 64.4291ZM12.8853 49.4719H46.1898C46.7187 49.4719 47.2259 49.6821 47.5999 50.0561C47.9739 50.4301 48.184 50.9373 48.184 51.4662C48.147 51.9829 47.925 52.4689 47.5587 52.8352C47.1924 53.2015 46.7064 53.4235 46.1898 53.4605H12.8853C12.3563 53.4605 11.8491 53.2504 11.4751 52.8764C11.1011 52.5024 10.891 51.9951 10.891 51.4662C10.8734 51.1998 10.9129 50.9326 11.0068 50.6827C11.1008 50.4327 11.2471 50.2057 11.436 50.0169C11.6248 49.8281 11.8518 49.6818 12.1017 49.5878C12.3517 49.4938 12.6188 49.4543 12.8853 49.4719ZM59.352 31.1246H12.8853C12.3563 31.1246 11.8491 30.9144 11.4751 30.5404C11.1011 30.1664 10.891 29.6592 10.891 29.1303C10.8734 28.8638 10.9129 28.5967 11.0068 28.3467C11.1008 28.0968 11.2471 27.8698 11.436 27.681C11.6248 27.4922 11.8518 27.3458 12.1017 27.2519C12.3517 27.1579 12.6188 27.1184 12.8853 27.136H59.352C59.8809 27.136 60.3882 27.3461 60.7622 27.7201C61.1362 28.0941 61.3463 28.6014 61.3463 29.1303C61.3463 29.6592 61.1362 30.1664 60.7622 30.5404C60.3882 30.9144 59.8809 31.1246 59.352 31.1246Z" fill="#E65300"/>
<path d="M17.0731 11.3811V0.811401C16.6743 1.01083 16.4749 1.01083 16.2754 1.21026L2.51489 15.1702H13.284C14.2733 15.1219 15.2093 14.7071 15.9097 14.0068C16.6101 13.3064 17.0248 12.3704 17.0731 11.3811Z" fill="#E65300"/>
<path d="M51.5741 90.5541C51.5969 91.9424 51.938 93.3069 52.5712 94.5426H14.281C13.0471 94.5579 11.8405 94.1794 10.8363 93.4621C9.83219 92.7449 9.08282 91.7262 8.69702 90.5541H51.5741Z" fill="#E65300"/>
<path d="M79.8931 14.5719V34.3153C78.5907 33.9855 77.2465 33.8511 75.9045 33.9164V8.98792C77.0767 9.37371 78.0953 10.1231 78.8126 11.1272C79.5298 12.1314 79.9083 13.338 79.8931 14.5719Z" fill="#E65300"/>
</svg>
