<svg width="265" height="266" viewBox="0 0 265 266" fill="none" xmlns="http://www.w3.org/2000/svg">
<path d="M170.893 127.93C170.893 118.928 163.57 111.609 154.577 111.609C150.216 111.609 146.12 113.306 143.038 116.392L105.223 154.207C100.099 159.331 93.9659 163.376 87.2953 166.159C91.5917 160.447 94.1705 153.38 94.1705 145.708C94.1705 126.907 78.8728 111.609 60.0715 111.609C41.2703 111.609 25.9726 126.907 25.9726 145.708C25.9726 156.355 30.8829 165.869 38.5509 172.13C16.864 176.235 0.398438 195.301 0.398438 218.168V265.054H98.4328V210.372C98.4328 208.292 99.2427 206.332 100.713 204.861L166.115 139.464C169.197 136.382 170.893 132.286 170.893 127.93ZM64.3339 179.807L68.1658 179.274C67.0703 184.44 63.8267 188.332 60.0715 188.332C56.4443 188.332 53.2944 184.709 52.0881 179.807H64.3339ZM34.4974 145.708C34.4974 131.604 45.9674 120.134 60.0715 120.134C74.1757 120.134 85.6457 131.604 85.6457 145.708C85.6457 159.812 74.1757 171.282 60.0715 171.282C45.9674 171.282 34.4974 159.812 34.4974 145.708ZM160.088 133.441L94.6862 198.838C91.6045 201.92 89.9081 206.016 89.9081 210.372V256.53H30.235V205.381H21.7103V256.53H8.92317V218.168C8.92317 198.323 24.0716 181.951 43.41 180.003C45.0552 189.619 51.8921 196.856 60.0715 196.856C68.8094 196.856 75.9446 188.57 76.9249 177.974C89.8442 175.732 101.975 169.505 111.25 160.23L149.065 122.414C150.519 120.965 152.522 120.134 154.577 120.134C158.873 120.134 162.368 123.629 162.368 127.93C162.368 130.01 161.558 131.966 160.088 133.441Z" fill="#E65300"/>
<path d="M239.16 172.233C246.905 165.976 251.879 156.415 251.879 145.708C251.879 126.907 236.581 111.609 217.78 111.609C198.979 111.609 183.681 126.907 183.681 145.708C183.681 161.939 195.091 175.536 210.304 178.954C205.125 183.221 201.169 188.992 199.315 195.791L193.212 218.168H151.713C143.487 218.168 136.795 224.86 136.795 233.087C136.795 241.313 143.487 248.005 151.713 248.005H192.206V265.054H264.666V204.546C264.666 188.877 253.767 175.741 239.16 172.233ZM192.206 145.708C192.206 131.604 203.676 120.134 217.78 120.134C231.884 120.134 243.354 131.604 243.354 145.708C243.354 159.812 231.884 171.282 217.78 171.282C203.676 171.282 192.206 159.812 192.206 145.708ZM256.141 256.53H200.73V248.005H204.302C211.655 248.005 218.151 243.32 220.474 236.347L234.608 193.941L226.526 191.243L212.392 233.649C211.224 237.14 207.976 239.48 204.302 239.48H151.713C148.188 239.48 145.32 236.612 145.32 233.087C145.32 229.562 148.188 226.693 151.713 226.693H199.724L207.542 198.033C210.466 187.3 220.282 179.807 231.402 179.807C245.042 179.807 256.141 190.906 256.141 204.546V256.53Z" fill="#E65300"/>
<path d="M60.0716 43.4114H51.5469V51.9361H60.0716V43.4114Z" fill="#E65300"/>
<path d="M119.744 43.4114H68.5957V51.9361H119.744V43.4114Z" fill="#E65300"/>
<path d="M119.745 60.4607H51.5469V68.9854H119.745V60.4607Z" fill="#E65300"/>
<path d="M119.745 77.5104H51.5469V86.0351H119.745V77.5104Z" fill="#E65300"/>
<path d="M247.615 34.8866H239.09V43.4113H247.615V34.8866Z" fill="#E65300"/>
<path d="M230.566 34.8866H145.318V43.4113H230.566V34.8866Z" fill="#E65300"/>
<path d="M247.615 51.9358H145.318V60.4605H247.615V51.9358Z" fill="#E65300"/>
<path d="M247.615 68.9854H145.318V77.5101H247.615V68.9854Z" fill="#E65300"/>
<path d="M243.354 0.787598H149.582C137.831 0.787598 128.27 10.3481 128.27 22.0994V26.3618H51.5475C42.1447 26.3618 34.498 34.0085 34.498 43.4112V86.0349C34.498 95.4377 42.1447 103.084 51.5475 103.084H89.9088V123.838L121.037 103.084H128.27C134.843 103.084 140.674 99.2184 143.495 93.5665C145.439 94.1504 147.455 94.5596 149.582 94.5596H161.077L192.206 115.313V94.5596H243.354C255.105 94.5596 264.666 84.9991 264.666 73.2478V22.0994C264.666 10.3481 255.105 0.787598 243.354 0.787598ZM128.27 94.5596H118.454L98.4335 107.905V94.5596H51.5475C46.8461 94.5596 43.0228 90.7363 43.0228 86.0349V43.4112C43.0228 38.7099 46.8461 34.8865 51.5475 34.8865H128.27V73.2478C128.27 79.8161 131.318 85.6214 136.002 89.5343C134.647 92.5051 131.659 94.5596 128.27 94.5596ZM256.141 73.2478C256.141 80.2977 250.404 86.0349 243.354 86.0349H183.681V99.3803L163.66 86.0349H149.582C142.532 86.0349 136.795 80.2977 136.795 73.2478V22.0994C136.795 15.0495 142.532 9.31233 149.582 9.31233H243.354C250.404 9.31233 256.141 15.0495 256.141 22.0994V73.2478Z" fill="#E65300"/>
<path d="M153.843 17.8369H145.318V26.3616H153.843V17.8369Z" fill="#E65300"/>
<path d="M170.894 17.8369H162.369V26.3616H170.894V17.8369Z" fill="#E65300"/>
<path d="M247.616 17.8369H179.418V26.3616H247.616V17.8369Z" fill="#E65300"/>
</svg>
