<svg width="32" height="32" viewBox="0 0 32 32" fill="none" xmlns="http://www.w3.org/2000/svg">
<path d="M10.8059 0.659245C10.0718 0.659245 9.36783 0.950857 8.84876 1.46993C8.32968 1.989 8.03807 2.69302 8.03807 3.4271V11.7307H2.41933C1.85353 11.735 1.3123 11.9625 0.913241 12.3636C0.514182 12.7647 0.289527 13.3071 0.288086 13.873V22.874C0.289527 23.4398 0.514182 23.9822 0.913241 24.3834C1.3123 24.7845 1.85353 25.012 2.41933 25.0163H8.03807V28.8913C8.03807 29.6254 8.32968 30.3294 8.84876 30.8485C9.36783 31.3676 10.0718 31.6592 10.8059 31.6592H28.5202C29.2543 31.6592 29.9583 31.3676 30.4773 30.8485C30.9964 30.3294 31.288 29.6254 31.288 28.8913V9.51637C31.2841 9.01659 31.0855 8.53801 30.7345 8.18227L23.9311 1.21282C23.7562 1.03558 23.5475 0.895252 23.3174 0.800162C23.0873 0.705073 22.8404 0.657153 22.5914 0.659245H10.8059ZM10.8059 1.76639H22.4309V7.30209C22.4309 7.88935 22.6642 8.45256 23.0794 8.86782C23.4947 9.28308 24.0579 9.51637 24.6452 9.51637H30.1809V28.8913C30.1809 29.3318 30.0059 29.7542 29.6945 30.0656C29.383 30.3771 28.9606 30.552 28.5202 30.552H10.8059C10.3655 30.552 9.94307 30.3771 9.63162 30.0656C9.32018 29.7542 9.14521 29.3318 9.14521 28.8913V25.0163H20.2997C20.8655 25.012 21.4067 24.7845 21.8057 24.3834C22.2048 23.9822 22.4295 23.4398 22.4309 22.874V13.873C22.4295 13.3071 22.2048 12.7647 21.8057 12.3636C21.4067 11.9625 20.8655 11.735 20.2997 11.7307H9.14521V3.4271C9.14521 2.98665 9.32018 2.56424 9.63162 2.2528C9.94307 1.94135 10.3655 1.76639 10.8059 1.76639ZM23.538 2.39746L29.4114 8.40923H24.6452C24.3515 8.40923 24.0699 8.29258 23.8623 8.08495C23.6547 7.87733 23.538 7.59572 23.538 7.30209V2.39746ZM2.41933 12.8378H20.2997C20.4355 12.8363 20.5703 12.8621 20.6959 12.9137C20.8216 12.9653 20.9356 13.0417 21.0311 13.1383C21.1267 13.2349 21.2018 13.3497 21.2521 13.4759C21.3024 13.6021 21.3267 13.7371 21.3238 13.873V22.874C21.3267 23.0098 21.3024 23.1449 21.2521 23.2711C21.2018 23.3973 21.1267 23.5121 21.0311 23.6087C20.9356 23.7053 20.8216 23.7816 20.6959 23.8333C20.5703 23.8849 20.4355 23.9107 20.2997 23.9092H2.41933C2.28349 23.9107 2.14872 23.8849 2.02306 23.8333C1.89739 23.7816 1.7834 23.7053 1.68785 23.6087C1.59231 23.5121 1.51716 23.3973 1.46689 23.2711C1.41662 23.1449 1.39225 23.0098 1.39523 22.874V13.873C1.39225 13.7371 1.41662 13.6021 1.46689 13.4759C1.51716 13.3497 1.59231 13.2349 1.68785 13.1383C1.7834 13.0417 1.89739 12.9653 2.02306 12.9137C2.14872 12.8621 2.28349 12.8363 2.41933 12.8378Z" fill="#E65300"/>
<path d="M4.16319 15.052C4.01637 15.052 3.87557 15.1103 3.77176 15.2141C3.66794 15.3179 3.60962 15.4587 3.60962 15.6055V21.1412C3.60962 21.2881 3.66794 21.4289 3.77176 21.5327C3.87557 21.6365 4.01637 21.6948 4.16319 21.6948C4.31001 21.6948 4.45081 21.6365 4.55462 21.5327C4.65844 21.4289 4.71676 21.2881 4.71676 21.1412V19.4805H5.8239C6.41116 19.4805 6.97437 19.2472 7.38963 18.832C7.80489 18.4167 8.03818 17.8535 8.03818 17.2663C8.03818 16.679 7.80489 16.1158 7.38963 15.7005C6.97437 15.2853 6.41116 15.052 5.8239 15.052H4.16319ZM4.71676 16.1591H5.8239C6.11753 16.1591 6.39914 16.2758 6.60677 16.4834C6.8144 16.691 6.93104 16.9726 6.93104 17.2663C6.93104 17.5599 6.8144 17.8415 6.60677 18.0491C6.39914 18.2567 6.11753 18.3734 5.8239 18.3734H4.71676V16.1591Z" fill="#E65300"/>
<path d="M9.69883 15.052C9.55202 15.052 9.41121 15.1103 9.3074 15.2141C9.20359 15.3179 9.14526 15.4587 9.14526 15.6055V21.1412C9.14526 21.2881 9.20359 21.4289 9.3074 21.5327C9.41121 21.6365 9.55202 21.6948 9.69883 21.6948H10.1749C11.0558 21.6948 11.9006 21.3449 12.5235 20.722C13.1464 20.0991 13.4963 19.2543 13.4963 18.3734C13.4963 17.4925 13.1464 16.6477 12.5235 16.0248C11.9006 15.4019 11.0558 15.052 10.1749 15.052H9.69883ZM10.2524 16.1591C10.8397 16.1591 11.4029 16.3924 11.8181 16.8077C12.2334 17.2229 12.4667 17.7861 12.4667 18.3734C12.4667 18.9607 12.2334 19.5239 11.8181 19.9391C11.4029 20.3544 10.8397 20.5877 10.2524 20.5877V16.1591Z" fill="#E65300"/>
<path d="M15.2345 15.052C15.0877 15.052 14.9469 15.1103 14.843 15.2141C14.7392 15.3179 14.6809 15.4587 14.6809 15.6055V21.1412C14.6809 21.2881 14.7392 21.4289 14.843 21.5327C14.9469 21.6365 15.0877 21.6948 15.2345 21.6948C15.3813 21.6948 15.5221 21.6365 15.6259 21.5327C15.7297 21.4289 15.788 21.2881 15.788 21.1412V18.855H18.5559C18.7027 18.855 18.8435 18.7967 18.9473 18.6929C19.0511 18.589 19.1095 18.4482 19.1095 18.3014C19.1095 18.1546 19.0511 18.0138 18.9473 17.91C18.8435 17.8062 18.7027 17.7479 18.5559 17.7479H15.788V16.1591H18.5559C18.7027 16.1591 18.8435 16.1008 18.9473 15.997C19.0511 15.8932 19.1095 15.7524 19.1095 15.6055C19.1095 15.4587 19.0511 15.3179 18.9473 15.2141C18.8435 15.1103 18.7027 15.052 18.5559 15.052H15.2345Z" fill="#E65300"/>
</svg>
