<svg width="27" height="19" viewBox="0 0 27 19" fill="none" xmlns="http://www.w3.org/2000/svg">
<path d="M13.9494 0.139893C10.5376 0.283913 7.28781 1.63489 4.77938 3.952C3.77309 4.80119 2.86368 5.75893 2.06768 6.8078C1.76342 7.18774 1.49585 7.59567 1.26858 8.0261C1.00091 8.41051 0.857422 8.86769 0.857422 9.3361C0.857422 9.80452 1.00091 10.2617 1.26858 10.6461C1.49524 11.0851 1.76279 11.5018 2.06768 11.8906C2.86406 12.9195 3.77369 13.8555 4.77938 14.6809C7.28971 16.9932 10.5393 18.3395 13.9494 18.4799C17.3544 18.3503 20.6034 17.0182 23.1194 14.7202C24.0948 13.8527 24.9733 12.882 25.7394 11.8251C26.0353 11.43 26.3024 11.0141 26.5385 10.5806C26.7976 10.1928 26.9359 9.73696 26.9359 9.2706C26.9359 8.80425 26.7976 8.34837 26.5385 7.9606C26.3114 7.53302 26.0485 7.12546 25.7525 6.7423C24.9479 5.69662 24.0345 4.73932 23.0277 3.8865C20.5337 1.61313 17.3209 0.287211 13.9494 0.139893ZM13.9494 2.7599C16.6999 2.92942 19.3085 4.03946 21.3378 5.9039C22.2002 6.63013 22.982 7.44703 23.6696 8.3405C23.9139 8.60672 24.0735 8.9396 24.1281 9.2968C24.0735 9.654 23.9139 9.98689 23.6696 10.2531C22.9837 11.1438 22.2066 11.9605 21.3509 12.6897C19.3166 14.5583 16.7055 15.6767 13.9494 15.8599C11.1748 15.7044 8.53819 14.5988 6.48238 12.729C5.62012 12.0068 4.84227 11.1894 4.16368 10.2924C3.92135 10.0232 3.75814 9.69224 3.69208 9.3361C3.74632 8.97615 3.91113 8.64196 4.16368 8.3798C4.82322 7.47563 5.57869 6.64549 6.41689 5.9039C8.48501 4.01074 11.1491 2.89879 13.9494 2.7599Z" fill="#E65300"/>
<path d="M13.9495 5.38C13.1723 5.38 12.4124 5.6105 11.7661 6.04233C11.1199 6.47416 10.6161 7.08795 10.3187 7.80606C10.0212 8.52418 9.94341 9.31437 10.095 10.0767C10.2467 10.8391 10.621 11.5393 11.1706 12.0889C11.7202 12.6386 12.4205 13.0129 13.1828 13.1645C13.9452 13.3161 14.7354 13.2383 15.4535 12.9409C16.1716 12.6434 16.7854 12.1397 17.2172 11.4934C17.649 10.8471 17.8795 10.0873 17.8795 9.31001C17.8795 8.26771 17.4655 7.2681 16.7285 6.53108C15.9914 5.79406 14.9918 5.38 13.9495 5.38ZM13.9495 8.00001C14.2086 8.00001 14.4619 8.07684 14.6773 8.22078C14.8928 8.36473 15.0607 8.56932 15.1598 8.80869C15.259 9.04806 15.2849 9.31146 15.2344 9.56558C15.1838 9.81969 15.0591 10.0531 14.8758 10.2363C14.6926 10.4195 14.4592 10.5443 14.2051 10.5948C13.951 10.6454 13.6876 10.6194 13.4482 10.5203C13.2089 10.4211 13.0043 10.2532 12.8603 10.0378C12.7164 9.82238 12.6395 9.5691 12.6395 9.31001C12.6395 8.96258 12.7776 8.62937 13.0232 8.3837C13.2689 8.13803 13.6021 8.00001 13.9495 8.00001Z" fill="#E65300"/>
</svg>
