<svg width="77" height="77" viewBox="0 0 77 77" fill="none" xmlns="http://www.w3.org/2000/svg">
<path d="M20.6008 41.1598C20.6008 42.3198 20.2008 43.2864 19.4008 44.0598C18.6142 44.8198 17.4075 45.1998 15.7808 45.1998H13.1008V51.0198H11.2808V37.0798H15.7808C17.3542 37.0798 18.5475 37.4598 19.3608 38.2198C20.1875 38.9798 20.6008 39.9598 20.6008 41.1598ZM15.7808 43.6998C16.7942 43.6998 17.5408 43.4798 18.0208 43.0398C18.5008 42.5998 18.7408 41.9731 18.7408 41.1598C18.7408 39.4398 17.7542 38.5798 15.7808 38.5798H13.1008V43.6998H15.7808ZM27.2029 37.0798C28.7229 37.0798 30.0362 37.3664 31.1429 37.9398C32.2629 38.4998 33.1162 39.3064 33.7029 40.3598C34.3029 41.4131 34.6029 42.6531 34.6029 44.0798C34.6029 45.5064 34.3029 46.7464 33.7029 47.7998C33.1162 48.8398 32.2629 49.6398 31.1429 50.1998C30.0362 50.7464 28.7229 51.0198 27.2029 51.0198H22.8629V37.0798H27.2029ZM27.2029 49.5198C29.0029 49.5198 30.3762 49.0464 31.3229 48.0998C32.2695 47.1398 32.7429 45.7998 32.7429 44.0798C32.7429 42.3464 32.2629 40.9931 31.3029 40.0198C30.3562 39.0464 28.9895 38.5598 27.2029 38.5598H24.6829V49.5198H27.2029ZM44.8835 37.0798V38.5598H38.8235V43.2598H43.7435V44.7398H38.8235V51.0198H37.0035V37.0798H44.8835Z" fill="#E65300"/>
<path d="M26.4708 1.77932C24.7331 1.78196 23.0673 2.47343 21.8385 3.70218C20.6098 4.93093 19.9183 6.59672 19.9157 8.33444V28.0197H6.59624C5.25556 28.0328 3.97394 28.5732 3.02869 29.5241C2.08344 30.4749 1.55058 31.7597 1.54541 33.1004V54.4294C1.55058 55.7702 2.08344 57.055 3.02869 58.0058C3.97394 58.9566 5.25556 59.4971 6.59624 59.5102H19.9157V68.7451C19.9183 70.4828 20.6098 72.1486 21.8385 73.3774C23.0673 74.6061 24.7331 75.2976 26.4708 75.3002H68.4614C70.1991 75.2976 71.8649 74.6061 73.0936 73.3774C74.3224 72.1486 75.0139 70.4828 75.0165 68.7451V22.7696C75.0096 21.5852 74.5373 20.4509 73.7015 19.6116L57.5827 3.09433C57.1705 2.66697 56.6756 2.32801 56.1282 2.09811C55.5805 1.87873 54.9947 1.77036 54.4047 1.77932H26.4708Z" stroke="#E65300" stroke-width="2" stroke-miterlimit="10"/>
<path d="M55.1965 2.78516V19.3066C55.1964 19.7956 55.2926 20.2798 55.4797 20.7316C55.6667 21.1834 55.9409 21.594 56.2866 21.9398C56.9885 22.6328 57.9335 23.024 58.9199 23.0299H75.0166" stroke="#E65300" stroke-width="2" stroke-linecap="round" stroke-linejoin="round"/>
<path d="M19.9155 59.5102H48.6863C50.027 59.4971 51.3086 58.9567 52.2539 58.0059C53.1991 57.055 53.732 55.7702 53.7371 54.4295V33.1005C53.732 31.7598 53.1991 30.475 52.2539 29.5241C51.3086 28.5733 50.027 28.0329 48.6863 28.0198H19.9155" stroke="#E65300" stroke-width="2" stroke-miterlimit="10"/>
</svg>
