<svg width="77" height="77" viewBox="0 0 77 77" fill="none" xmlns="http://www.w3.org/2000/svg">
<path d="M3.65252 3.82181C4.99435 2.50708 6.79968 1.77321 8.67824 1.77884H68.2616C70.1474 1.7868 71.9537 2.53944 73.2873 3.87289V3.87289C74.602 5.21472 75.3359 7.02004 75.3303 8.89861V48.3382C75.3303 50.2346 74.5769 52.0534 73.236 53.3943C71.895 54.7353 70.0763 55.4886 68.1799 55.4886H8.67824C6.78183 55.4886 4.9631 54.7353 3.62214 53.3943C2.28118 52.0534 1.52783 50.2346 1.52783 48.3382V8.84753C1.53189 7.91092 1.72178 6.98443 2.0865 6.12174C2.45121 5.25904 2.9835 4.4773 3.65252 3.82181V3.82181Z" stroke="#E65300" stroke-width="2" stroke-miterlimit="10"/>
<path d="M32.6831 36.632V38.011L33.8476 37.2756L46.6877 29.2467L47.7092 28.5929L46.6877 27.9392L33.8476 19.9001L32.6831 19.1748V36.632Z" stroke="#E65300" stroke-width="2" stroke-linecap="round" stroke-linejoin="round"/>
<path d="M1.55884 67.5317H44.7882" stroke="#E65300" stroke-width="2" stroke-linecap="round" stroke-linejoin="round"/>
<path d="M60.6416 67.5317H75.3817" stroke="#E65300" stroke-width="2" stroke-linecap="round" stroke-linejoin="round"/>
<path d="M52.7151 75.5305C57.0929 75.5305 60.6418 71.9816 60.6418 67.6037C60.6418 63.2259 57.0929 59.677 52.7151 59.677C48.3373 59.677 44.7883 63.2259 44.7883 67.6037C44.7883 71.9816 48.3373 75.5305 52.7151 75.5305Z" stroke="#E65300" stroke-width="2" stroke-miterlimit="10"/>
</svg>
