<svg width="306" height="216" viewBox="0 0 306 216" fill="none" xmlns="http://www.w3.org/2000/svg">
<path d="M253.571 110.574H277.434C281.058 110.59 284.65 109.888 288.002 108.508C291.353 107.128 294.399 105.099 296.962 102.536C299.525 99.9735 301.554 96.9276 302.934 93.576C304.313 90.2245 305.016 86.6326 305 83.0082V29.1727C305.016 25.5483 304.313 21.9564 302.934 18.6049C301.554 15.2533 299.525 12.2074 296.962 9.64452C294.399 7.08166 291.353 5.05256 288.002 3.67292C284.65 2.29327 281.058 1.59102 277.434 1.60696H186.855C183.232 1.59099 179.641 2.29291 176.291 3.67292C172.942 5.05292 169.899 7.0842 167.339 9.64745C164.778 12.2107 162.751 15.2564 161.374 18.6078C159.998 21.9592 159.299 25.5497 159.319 29.1727V83.0993C159.299 86.7222 159.998 90.3128 161.374 93.6642C162.751 97.0156 164.778 100.061 167.339 102.625C169.899 105.188 172.942 107.219 176.291 108.599C179.641 109.979 183.232 110.681 186.855 110.665H204.61C207.001 110.756 209.266 111.757 210.944 113.463C212.622 115.169 213.586 117.451 213.638 119.843C213.722 130.604 212.283 141.323 209.365 151.682C225.254 141.269 238.734 124.598 246.077 114.938C246.86 113.64 247.956 112.559 249.266 111.796C250.575 111.034 252.056 110.614 253.571 110.574V110.574Z" stroke="#E65300" stroke-width="2" stroke-linecap="round" stroke-linejoin="round"/>
<path d="M185.621 38.3201H277.435" stroke="#E65300" stroke-width="2" stroke-linecap="round" stroke-linejoin="round"/>
<path d="M185.621 56.3757H277.435" stroke="#E65300" stroke-width="2" stroke-linecap="round" stroke-linejoin="round"/>
<path d="M185.621 74.4319H277.435" stroke="#E65300" stroke-width="2" stroke-linecap="round" stroke-linejoin="round"/>
<path d="M53.3156 173.147H29.4527C25.8283 173.163 22.2364 172.461 18.8849 171.081C15.5333 169.702 12.4874 167.672 9.92454 165.11C7.36169 162.547 5.33259 159.501 3.95295 156.149C2.5733 152.798 1.87105 149.206 1.88698 145.581V91.7459C1.87105 88.1216 2.5733 84.5297 3.95295 81.1781C5.33259 77.8265 7.36169 74.7806 9.92454 72.2178C12.4874 69.6549 15.5333 67.6258 18.8849 66.2462C22.2364 64.8665 25.8283 64.1643 29.4527 64.1802H120.032C123.655 64.1642 127.245 64.8662 130.595 66.2462C133.945 67.6262 136.988 69.6574 139.548 72.2207C142.109 74.784 144.136 77.8296 145.512 81.181C146.889 84.5324 147.588 88.123 147.568 91.7459V145.673C147.588 149.295 146.889 152.886 145.512 156.237C144.136 159.589 142.109 162.635 139.548 165.198C136.988 167.761 133.945 169.792 130.595 171.172C127.245 172.552 123.655 173.254 120.032 173.238H102.277C99.8861 173.33 97.6205 174.33 95.9426 176.036C94.2647 177.742 93.3012 180.024 93.2492 182.416C93.1652 193.177 94.6036 203.897 97.5222 214.255C81.633 203.843 68.1522 187.171 60.8095 177.511C60.0271 176.213 58.9304 175.132 57.6209 174.37C56.3114 173.607 54.8305 173.187 53.3156 173.147V173.147Z" stroke="#E65300" stroke-width="2" stroke-linecap="round" stroke-linejoin="round"/>
<path d="M121.266 100.893H29.4521" stroke="#E65300" stroke-width="2" stroke-linecap="round" stroke-linejoin="round"/>
<path d="M121.266 118.949H29.4521" stroke="#E65300" stroke-width="2" stroke-linecap="round" stroke-linejoin="round"/>
<path d="M121.266 137.005H29.4521" stroke="#E65300" stroke-width="2" stroke-linecap="round" stroke-linejoin="round"/>
</svg>
