<svg width="90" height="77" viewBox="0 0 90 77" fill="none" xmlns="http://www.w3.org/2000/svg">
<path d="M47.7134 63.8614V70.8514C47.716 71.5004 47.5847 72.1427 47.3278 72.7372C47.071 73.3318 46.6942 73.8655 46.2217 74.3042C45.7493 74.7429 45.1915 75.0769 44.5841 75.2848C43.9767 75.4927 43.333 75.5699 42.6945 75.5115C35.6099 74.7324 28.8048 72.2824 22.8257 68.3583C17.263 64.7809 12.5468 60.0079 9.012 54.3782C5.12109 48.2996 2.69969 41.3789 1.94398 34.1768C1.88645 33.5325 1.96211 32.8831 2.16615 32.27C2.37019 31.6569 2.69814 31.0935 3.12912 30.6157C3.5601 30.1379 4.08466 29.7561 4.66941 29.4947C5.25416 29.2333 5.88628 29.098 6.52553 29.0974H13.4324C14.5497 29.0863 15.6329 29.4867 16.4801 30.224C17.3272 30.9614 17.8806 31.9853 18.037 33.105C18.3285 35.342 18.8691 37.5384 19.6486 39.6524C19.9583 40.4864 20.0254 41.3927 19.8417 42.2641C19.6581 43.1354 19.2315 43.9353 18.6125 44.5688L15.6886 47.5279C18.9661 53.3612 23.7385 58.1911 29.5024 61.508L32.4263 58.5489C33.0522 57.9225 33.8425 57.4907 34.7035 57.3049C35.5645 57.1191 36.46 57.1869 37.2841 57.5004C39.3729 58.2892 41.5432 58.8364 43.7535 59.1314C44.8719 59.2911 45.8933 59.8612 46.6234 60.7333C47.3535 61.6054 47.7415 62.7187 47.7134 63.8614Z" stroke="#E65300" stroke-width="2" stroke-linecap="round" stroke-linejoin="round"/>
<path d="M70.4295 40.2336H78.8507C80.1298 40.2392 81.3974 39.9914 82.5802 39.5045C83.7629 39.0177 84.8379 38.3016 85.7423 37.3971C86.6467 36.4927 87.3628 35.4178 87.8497 34.235C88.3366 33.0522 88.5844 31.7847 88.5788 30.5056V11.5069C88.5844 10.2279 88.3366 8.96028 87.8497 7.7775C87.3628 6.59473 86.6467 5.51981 85.7423 4.61538C84.8379 3.71094 83.7629 2.99486 82.5802 2.50799C81.3974 2.02111 80.1298 1.77328 78.8507 1.7789H46.8852C45.6066 1.77327 44.3395 2.02098 43.1573 2.50799C41.9751 2.99499 40.9014 3.71184 39.9978 4.61641C39.0942 5.52099 38.3787 6.59582 37.893 7.77854C37.4073 8.96126 37.1605 10.2284 37.1675 11.5069V30.5378C37.1605 31.8163 37.4073 33.0834 37.893 34.2661C38.3787 35.4489 39.0942 36.5237 39.9978 37.4283C40.9014 38.3328 41.9751 39.0497 43.1573 39.5367C44.3395 40.0237 45.6066 40.2714 46.8852 40.2658H53.1508C53.9946 40.2981 54.7942 40.6511 55.3863 41.2531C55.9784 41.8551 56.3185 42.6604 56.3368 43.5046C56.3664 47.3023 55.8588 51.0852 54.8289 54.7406C60.4362 51.0661 65.1936 45.1827 67.7849 41.7737C68.061 41.3157 68.448 40.9342 68.9101 40.6651C69.3722 40.3959 69.8949 40.2477 70.4295 40.2336V40.2336Z" stroke="#E65300" stroke-width="2" stroke-linecap="round" stroke-linejoin="round"/>
<path d="M46.4494 14.7351H78.8508" stroke="#E65300" stroke-width="2" stroke-linecap="round" stroke-linejoin="round"/>
<path d="M46.4494 21.1069H78.8508" stroke="#E65300" stroke-width="2" stroke-linecap="round" stroke-linejoin="round"/>
<path d="M46.4494 27.4788H78.8508" stroke="#E65300" stroke-width="2" stroke-linecap="round" stroke-linejoin="round"/>
</svg>
