<svg width="59" height="59" viewBox="0 0 59 59" fill="none" xmlns="http://www.w3.org/2000/svg">
<path d="M0.606934 0.484344H28.1983C28.1983 9.68148 28.1983 18.8786 28.1983 28.0758H0.606934V0.484344Z" fill="#F25022"/>
<path d="M31.0154 0.4841H58.6068C58.6068 9.68124 58.6068 18.8784 58.6068 28.0755H31.017C31.017 18.8784 31.017 9.68124 31.017 0.4841H31.0154Z" fill="#80BA01"/>
<path d="M0.606934 30.891C9.80407 30.891 19.0012 30.891 28.1983 30.891C28.1983 40.0881 28.1983 49.2847 28.1983 58.4807H0.606934V30.891Z" fill="#02A4EF"/>
<path d="M31.017 30.8944C40.2131 30.8944 49.4097 30.8944 58.6068 30.8944V58.4841H31.0154C31.0154 49.287 31.0154 40.0904 31.0154 30.8944H31.017Z" fill="#FFB902"/>
</svg>
