<svg width="74" height="77" viewBox="0 0 74 77" fill="none" xmlns="http://www.w3.org/2000/svg">
<path d="M31.9547 59.6774C29.6186 60.4544 25.426 61.383 23.6374 60.9189C23.0899 60.2984 22.0731 58.1968 21.6142 57.034C20.2949 54.0773 19.2051 51.6678 16.9524 51.2037C16.5613 51.1255 13.3753 50.2707 12.4419 50.036C9.02112 49.1809 7.31603 48.9514 5.60565 50.4271C3.11831 52.6016 1.63714 66.3572 1.71535 73.9757C1.71499 74.1359 1.74781 74.2946 1.81134 74.4416C1.87487 74.5887 1.96791 74.7211 2.0848 74.8307C2.20169 74.9402 2.33979 75.0248 2.49066 75.0787C2.64153 75.1326 2.80186 75.1546 2.96171 75.1439C5.91315 75.1439 12.6766 75.3002 15.2422 75.3002C15.5461 75.3002 15.8395 75.1896 16.0679 74.9891C16.2963 74.7885 16.4439 74.5118 16.4832 74.2104L18.0475 62.7073C18.9757 64.3395 20.0656 65.6588 21.6196 66.2063C22.6519 66.5216 23.7262 66.6779 24.8056 66.6702C27.8553 66.5651 30.8704 65.9885 33.7434 64.9602C34.4536 64.7211 35.0402 64.2102 35.3753 63.5399C35.7104 62.8697 35.7666 62.0944 35.5319 61.3828C35.2643 60.6969 34.7456 60.1388 34.081 59.822C33.4165 59.5052 32.656 59.4533 31.9547 59.6774V59.6774Z" stroke="#E65300" stroke-width="2" stroke-linecap="round" stroke-linejoin="round"/>
<path d="M14.6217 48.0911C18.8725 48.0911 22.3184 44.6452 22.3184 40.3945C22.3184 36.1437 18.8725 32.6978 14.6217 32.6978C10.371 32.6978 6.92505 36.1437 6.92505 40.3945C6.92505 44.6452 10.371 48.0911 14.6217 48.0911Z" stroke="#E65300" stroke-width="2" stroke-linecap="round" stroke-linejoin="round"/>
<path d="M24.6574 23.687C23.4372 25.3192 21.1999 28.0672 18.5509 29.7932C19.0373 28.0732 19.2779 26.2927 19.2653 24.5053C19.256 24.103 19.0921 23.72 18.8075 23.4354C18.523 23.1509 18.1399 22.9869 17.7376 22.9776H14.7861C14.1841 22.9804 13.5875 22.864 13.0308 22.6349C12.474 22.4058 11.9682 22.0686 11.5425 21.6429C11.1168 21.2172 10.7796 20.7112 10.5505 20.1544C10.3214 19.5977 10.2048 19.0011 10.2076 18.3991V9.44064C10.2048 8.83862 10.3214 8.24203 10.5505 7.68531C10.7796 7.12858 11.1168 6.62302 11.5425 6.19732C11.9682 5.77163 12.474 5.43444 13.0308 5.20533C13.5875 4.97623 14.1841 4.85935 14.7861 4.86211H29.8457C30.448 4.85935 31.0448 4.97629 31.6018 5.20533C32.1588 5.43438 32.6649 5.77119 33.0911 6.19681C33.5172 6.62244 33.8549 7.12805 34.0846 7.6848C34.3143 8.24155 34.4314 8.83838 34.4293 9.44064V18.3991C34.4314 19.0014 34.3143 19.5982 34.0846 20.1549C33.8549 20.7117 33.5172 21.2178 33.0911 21.6434C32.6649 22.0691 32.1588 22.4059 31.6018 22.6349C31.0448 22.864 30.448 22.9804 29.8457 22.9776H25.8775C25.6312 22.985 25.3906 23.0539 25.1775 23.1778C24.9645 23.3016 24.7857 23.4766 24.6574 23.687V23.687Z" stroke="#E65300" stroke-width="2" stroke-linecap="round" stroke-linejoin="round"/>
<path d="M14.5833 10.9685H29.8515" stroke="#E65300" stroke-width="2" stroke-linecap="round" stroke-linejoin="round"/>
<path d="M14.5833 16.9702H29.8515" stroke="#E65300" stroke-width="2" stroke-linecap="round" stroke-linejoin="round"/>
<path d="M47.7121 22.1198H43.2576C42.581 22.1227 41.9105 21.9916 41.2849 21.7341C40.6592 21.4766 40.0906 21.0978 39.6122 20.6194C39.1338 20.141 38.7551 19.5724 38.4975 18.9468C38.24 18.3211 38.1089 17.6506 38.1119 16.9741V6.92456C38.1089 6.248 38.24 5.5775 38.4975 4.95186C38.7551 4.32622 39.1338 3.75764 39.6122 3.27923C40.0906 2.80082 40.6592 2.42205 41.2849 2.16451C41.9105 1.90697 42.581 1.77588 43.2576 1.77886H60.166C60.8423 1.77588 61.5125 1.90691 62.1379 2.16451C62.7632 2.42212 63.3312 2.8013 63.8091 3.27978C64.2871 3.75826 64.6656 4.3268 64.9225 4.95241C65.1794 5.57802 65.3099 6.24827 65.3062 6.92456V16.9911C65.3099 17.6674 65.1794 18.3376 64.9225 18.9632C64.6656 19.5888 64.2871 20.1574 63.8091 20.6358C63.3312 21.1143 62.7632 21.4935 62.1379 21.7511C61.5125 22.0087 60.8423 22.1397 60.166 22.1368H56.8517C56.4054 22.1538 55.9825 22.3406 55.6693 22.659C55.356 22.9774 55.1762 23.4034 55.1665 23.85C55.1508 25.8588 55.4193 27.8598 55.9641 29.7933C52.9981 27.8497 50.4816 24.7376 49.1109 22.9344C48.9649 22.6921 48.7602 22.4903 48.5157 22.348C48.2713 22.2056 47.9948 22.1272 47.7121 22.1198V22.1198Z" stroke="#E65300" stroke-width="2" stroke-linecap="round" stroke-linejoin="round"/>
<path d="M60.396 8.63208H43.2571" stroke="#E65300" stroke-width="2" stroke-linecap="round" stroke-linejoin="round"/>
<path d="M60.396 15.373H43.2571" stroke="#E65300" stroke-width="2" stroke-linecap="round" stroke-linejoin="round"/>
<path d="M69.1088 50.5057C67.4767 49.0247 65.7664 49.2594 62.4239 50.1146C61.4904 50.3492 58.1479 51.2046 57.7621 51.2828C55.5824 51.7469 54.4195 54.0777 52.9386 56.9562C52.3181 58.119 51.3063 60.1424 50.6857 60.8411C49.5229 60.7629 46.5663 58.51 44.47 56.1791C43.9615 55.6259 43.2561 55.295 42.5056 55.2574C41.7552 55.2198 41.02 55.4788 40.4588 55.9784C39.8976 56.4781 39.5553 57.178 39.5057 57.9278C39.4562 58.6775 39.7033 59.417 40.194 59.9861C41.6697 61.6183 46.4099 66.5145 50.8423 66.5145C51.4204 66.5134 51.9956 66.4344 52.5526 66.2797C54.263 65.7583 55.4258 64.1941 56.5939 62.3169L58.226 74.4458C58.2664 74.7463 58.4145 75.0219 58.6428 75.2214C58.871 75.4209 59.1638 75.5307 59.467 75.5305C62.1108 75.4523 68.7959 75.3742 71.7525 75.3742C72.0708 75.3826 72.3795 75.2654 72.6119 75.0477C72.8442 74.8301 72.9816 74.5292 72.9938 74.2111C72.9677 66.3579 71.4919 52.6019 69.1088 50.5057Z" stroke="#E65300" stroke-width="2" stroke-linecap="round" stroke-linejoin="round"/>
<path d="M59.9884 48.0911C64.2392 48.0911 67.6851 44.6452 67.6851 40.3945C67.6851 36.1437 64.2392 32.6978 59.9884 32.6978C55.7377 32.6978 52.2917 36.1437 52.2917 40.3945C52.2917 44.6452 55.7377 48.0911 59.9884 48.0911Z" stroke="#E65300" stroke-width="2" stroke-linecap="round" stroke-linejoin="round"/>
</svg>
